HIERARCHY
ROOT Hips
{
	OFFSET 0.000000 0.000000 0.000000 
	CHANNELS 6 Xposition Yposition Zposition Yrotation Zrotation Xrotation 
	JOINT Lumbar
	{
		OFFSET 0.000000 0.000000 0.000000 
		CHANNELS 3 Zrotation Xrotation Yrotation
		JOINT Neck
		{
			OFFSET 0.000000 0.445665 0.000000 
			CHANNELS 3 Zrotation Xrotation Yrotation
			End Site
			{
				OFFSET 0.000000 0.227535 0.000000 
			}
		}
		JOINT RightShoulder
		{
			OFFSET 0.019635 0.377685 0.194865 
			CHANNELS 3 Zrotation Xrotation Yrotation
			JOINT RightElbow
			{
				OFFSET 0.000000 -0.243375 0.000000 
				CHANNELS 2 Zrotation Yrotation
				JOINT RightWrist
				{
					OFFSET 0.000000 -0.264825 0.000000 
					CHANNELS 2 Zrotation Xrotation
					End Site
					{
						OFFSET 0.006600 -0.176220 0.000990 
					}
				}
			}
		}
		JOINT LeftShoulder
		{
			OFFSET 0.019635 0.377685 -0.194865 
			CHANNELS 3 Zrotation Xrotation Yrotation
			JOINT LeftElbow
			{
				OFFSET 0.000000 -0.243375 0.000000 
				CHANNELS 2 Zrotation Yrotation
				JOINT LeftWrist
				{
					OFFSET 0.000000 -0.264825 0.000000 
					CHANNELS 2 Zrotation Xrotation
					End Site
					{
						OFFSET 0.006600 -0.176220 -0.000990 
					}
				}
			}
		}
	}
	JOINT RightHip
	{
		OFFSET 0.052140 -0.069960 0.075570 
		CHANNELS 3 Zrotation Xrotation Yrotation
		JOINT RightKnee
		{
			OFFSET 0.000000 -0.402270 0.000000 
			CHANNELS 1 Zrotation
			JOINT RightAnkle
			{
				OFFSET 0.000000 -0.404085 0.000000 
				CHANNELS 3 Zrotation Xrotation Yrotation
				End Site
				{
					OFFSET 0.204105 -0.089430 0.008415 
				}
			}
		}
	}
	JOINT LeftHip
	{
		OFFSET 0.052140 -0.069960 -0.075570 
		CHANNELS 3 Zrotation Xrotation Yrotation
		JOINT LeftKnee
		{
			OFFSET 0.000000 -0.402270 0.000000 
			CHANNELS 1 Zrotation
			JOINT LeftAnkle
			{
				OFFSET 0.000000 -0.404085 0.000000 
				CHANNELS 3 Zrotation Xrotation Yrotation
				End Site
				{
					OFFSET 0.204105 -0.089430 -0.008415 
				}
			}
		}
	}
}
MOTION
Frames: 27
Frame Time: 0.02
-0.25097 0.01171 0.06692 208.53446 -25.42639 -2.52206 37.8599 6.15587 -6.1416 -22.00927 12.41535 -2.1199 35.08461 -64.6917 14.24146 43.97344 83.97734 1.31896 1.1699 -42.12848 20.64988 -21.22635 67.0211 -93.53509 9.96479 -0.56245 24.51157 -1.22382 -11.00996 -17.64829 -7.48208 -2.41433 -3.44638 29.79125 16.36961 5.09047 -24.138 -9.87197 2.82769 3.77027
-0.25108 0.01178 0.07515 208.16455 -25.43624 -2.68495 38.32792 6.03016 -6.14711 -21.81245 12.34728 -2.1199 30.86162 -63.42048 9.69883 45.34816 83.72064 1.15094 0.74656 -42.19576 20.18544 -20.74137 66.97225 -93.43884 9.73718 -0.60796 24.23658 -1.54383 -11.01146 -17.46018 -7.51084 -2.37408 -3.42955 29.31911 16.16285 5.81312 -24.06659 -9.71685 2.83947 3.76906
-0.25006 0.01231 0.08374 207.94327 -25.50278 -2.75964 38.73776 5.85878 -6.25369 -21.5876 12.30145 -2.1199 26.44245 -62.22046 5.2378 47.18718 83.47274 1.13592 0.14594 -42.30434 19.58579 -20.10288 66.84499 -93.34599 9.50664 -0.65963 24.0533 -1.97968 -10.93675 -17.20873 -7.58284 -2.34867 -3.42248 29.04919 15.77444 6.46893 -24.02861 -9.56456 2.84286 3.76403
-0.24948 0.01261 0.09217 207.65251 -25.53189 -2.87277 39.15399 5.71205 -6.31244 -21.3784 12.24516 -2.1199 22.16624 -60.98753 0.7936 48.79561 83.22341 1.05156 -0.36108 -42.40495 19.06375 -19.54321 66.76663 -93.25371 9.28079 -0.70777 23.82203 -2.3635 -10.86476 -16.98901 -7.63675 -2.31963 -3.41248 28.68198 15.4575 7.12321 -23.98136 -9.41321 2.85348 3.76251
-0.24924 0.013 0.10058 207.36966 -25.61061 -2.99427 39.65756 5.55068 -6.37828 -21.15921 12.18834 -2.1199 17.63966 -59.75632 -3.901 50.5032 82.96019 0.9713 -0.92427 -42.46187 18.46796 -18.94024 66.63249 -93.16092 9.04412 -0.76006 23.61603 -2.7449 -10.92735 -16.75507 -7.68373 -2.27756 -3.39613 28.33777 15.18837 7.92857 -23.9063 -9.24929 2.84943 3.75324
-0.24802 0.0133 0.10913 207.10493 -25.59949 -3.0765 39.96448 5.40835 -6.45311 -20.95475 12.1388 -2.1199 13.60229 -58.54036 -8.03939 52.10533 82.7289 0.9145 -1.41084 -42.61776 17.99502 -18.39312 66.59459 -93.08375 8.83103 -0.80831 23.3823 -3.15989 -10.69384 -16.5398 -7.75541 -2.26576 -3.39515 27.99382 14.77547 8.39784 -23.89795 -9.1134 2.87388 3.75924
-0.24448 0.01332 0.11796 206.86471 -25.32442 -3.07602 39.74122 5.32853 -6.53656 -20.77938 12.10217 -2.1199 10.89821 -57.32835 -10.74087 53.33767 82.58731 0.91668 -1.65871 -43.05043 17.90411 -18.03614 66.85654 -92.83131 8.64483 -0.79852 23.0186 -3.62536 -9.63425 -16.35127 -7.88643 -2.33849 -3.43644 27.59811 14.01904 7.94856 -24.06762 -9.05463 2.98054 3.80909
-0.23998 0.01323 0.12691 206.63633 -24.95731 -3.03826 39.32211 5.26929 -6.62489 -20.62246 12.0725 -2.1199 8.70819 -56.133 -12.86796 54.43928 82.47756 0.93182 -1.82064 -43.57842 17.94069 -17.742 67.21526 -92.62557 8.48767 -0.79107 22.63005 -4.12279 -8.28468 -16.19202 -8.04066 -2.44037 -3.49249 27.19605 13.12324 7.16417 -24.3027 -9.0242 3.11573 3.87423
-0.23587 0.01316 0.13581 206.39481 -24.63351 -3.0145 38.99296 5.20129 -6.70477 -20.46891 12.04128 -2.1199 6.32789 -54.94333 -15.2047 55.57613 82.35101 0.91894 -2.01098 -44.05407 17.91328 -17.42039 67.52025 -92.54417 8.34318 -0.81304 22.27214 -4.61485 -7.08444 -16.04413 -8.18309 -2.52599 -3.54037 26.79892 12.28438 6.53272 -24.50779 -8.98124 3.23718 3.93205
-0.23191 0.01322 0.14471 206.18874 -24.30527 -2.99955 38.65706 5.12969 -6.81167 -20.26575 12.00475 -2.1199 3.75629 -53.69988 -17.75798 56.83214 82.2336 1.00146 -2.25139 -44.57025 17.90614 -17.0873 67.86428 -91.87164 8.09401 -0.71127 21.8331 -5.07338 -5.80477 -15.78549 -8.33192 -2.62487 -3.59478 26.40069 11.46314 5.88837 -24.71772 -8.93755 3.36241 3.99174
-0.22744 0.01298 0.15363 205.91281 -23.96391 -2.95924 38.29039 5.0705 -6.86564 -20.16951 11.97971 -2.1199 1.70931 -52.5719 -19.72214 57.80195 82.10577 0.89061 -2.36612 -45.02288 17.88941 -16.79686 68.15019 -92.4127 8.06415 -0.86185 21.55928 -5.60653 -4.62611 -15.77089 -8.47285 -2.70284 -3.63897 26.00002 10.57829 5.20231 -24.9294 -8.90121 3.48565 4.05066
-0.22177 0.01195 0.16265 205.41497 -23.6076 -2.85261 37.87993 5.04503 -6.74253 -20.37322 11.99234 -2.1199 0.97318 -51.75446 -20.22296 58.01801 81.93188 0.20571 -2.1423 -45.28707 17.81139 -16.59468 68.25945 -96.53347 8.68069 -1.75751 21.71878 -6.34755 -3.76882 -16.37431 -8.58143 -2.71626 -3.65137 25.59964 9.52005 4.39289 -25.15843 -8.88615 3.60526 4.10849
-0.21563 0.01063 0.17167 204.85138 -23.24191 -2.72337 37.44764 5.03052 -6.57147 -20.68184 12.01457 -2.11991 0.74932 -51.05282 -20.14749 57.94754 81.7483 -0.66779 -1.79635 -45.48201 17.72097 -16.43691 68.30594 -101.82572 9.50778 -2.89707 22.05031 -7.15957 -3.02946 -17.2308 -8.68163 -2.70762 -3.65296 25.19593 8.40968 3.56858 -25.38185 -8.87617 3.7203 4.16417
-0.20973 0.00946 0.18064 204.33319 -22.88016 -2.60829 37.02899 5.00851 -6.44078 -20.93716 12.02751 -2.11991 0.30143 -50.30093 -20.32035 58.00257 81.57513 -1.43197 -1.51373 -45.70146 17.63894 -16.26858 68.37657 -106.42839 10.20731 -3.89395 22.32169 -7.933 -2.25445 -18.00484 -8.78904 -2.7087 -3.65939 24.78791 7.34465 2.81253 -25.5885 -8.85848 3.83167 4.21769
-0.20369 0.0082 0.18983 203.74656 -22.51374 -2.4748 36.58434 4.99865 -6.23009 -21.21884 12.06223 -2.11991 -0.16062 -49.54071 -20.52762 58.0723 81.37703 -2.29668 -1.19549 -45.95308 17.5485 -16.06075 68.46879 -111.71004 11.04326 -5.02869 22.51637 -8.73689 -1.39115 -18.64618 -8.88424 -2.71167 -3.66649 24.40049 6.18228 1.79171 -25.87752 -8.86402 3.96824 4.2849
-0.19786 0.00708 0.19855 203.291 -22.15959 -2.37561 36.19551 4.96479 -6.1768 -21.46781 12.05287 -2.11991 -0.48457 -48.82376 -20.53735 58.0462 81.22899 -2.99519 -0.92314 -46.12075 17.47239 -15.94613 68.50019 -115.8379 11.64364 -5.92994 22.91169 -9.49052 -0.74653 -19.6189 -9.00089 -2.70562 -3.66964 23.97429 5.21331 1.31496 -25.9947 -8.82272 4.05092 4.32298
-0.19257 0.0064 0.20607 203.17611 -21.81118 -2.36943 35.93009 4.87065 -6.5495 -21.62205 11.9269 -2.11991 -0.49924 -48.21034 -20.11355 57.81351 81.21403 -3.20461 -0.81087 -46.06647 17.42591 -16.06717 68.37585 -116.65301 11.55305 -6.16583 23.82063 -10.11505 -0.65168 -21.48386 -9.19299 -2.67519 -3.66272 23.39952 4.78202 2.41819 -25.62193 -8.64464 3.9852 4.28045
-0.18754 0.00589 0.2131 203.2021 -21.48134 -2.39985 35.72899 4.75026 -7.08512 -21.73578 11.75479 -2.11991 -0.40468 -47.63464 -19.51811 57.49598 81.25085 -3.23762 -0.74879 -45.93089 17.3957 -16.28165 68.19258 -116.24631 11.21766 -6.15309 24.9247 -10.68107 -0.778 -23.66478 -9.40413 -2.63708 -3.6524 22.79348 4.54958 4.05823 -25.07945 -8.42024 3.86536 4.20873
-0.1825 0.00535 0.22028 203.18828 -21.16374 -2.41872 35.52356 4.63607 -7.56059 -21.85396 11.59885 -2.11991 -0.39821 -47.03269 -19.0245 57.22729 81.26898 -3.34064 -0.66186 -45.83671 17.36639 -16.46093 68.03783 -116.28134 10.98474 -6.22593 25.93929 -11.25633 -0.82238 -25.67702 -9.59722 -2.60568 -3.64483 22.22988 4.23277 5.40458 -24.62508 -8.22101 3.77067 4.1508
-0.177 0.00463 0.22775 203.07075 -20.7595 -2.41628 35.21358 4.54638 -7.9794 -22.03446 11.46351 -2.11991 -0.21305 -46.47084 -18.41404 56.90984 81.26711 -3.492 -0.57913 -45.72151 17.30324 -16.6135 67.87357 -116.79602 10.78907 -6.41449 26.96594 -11.90842 -0.79645 -27.80968 -9.82997 -2.56042 -3.63205 21.54814 3.88871 6.95661 -24.12329 -8.00471 3.67367 4.09068
-0.17253 0.0043 0.23448 203.20251 -20.53897 -2.46599 35.13512 4.39936 -8.55098 -22.07452 11.27417 -2.11991 -0.37859 -45.83595 -18.0085 56.6716 81.31837 -3.49974 -0.50129 -45.63153 17.31265 -16.84032 67.716 -116.05712 10.46391 -6.3105 28.00818 -12.38428 -0.96275 -29.75617 -9.98438 -2.54189 -3.62914 21.10364 3.64932 8.21244 -23.68114 -7.81277 3.56847 4.02811
-0.1708 0.00509 0.23931 203.99733 -20.83167 -2.66136 35.6958 4.10004 -9.54252 -21.73334 10.94698 -2.11991 -1.56146 -44.96448 -18.25664 56.72402 81.51181 -3.14122 -0.42427 -45.63182 17.53522 -17.2754 67.59011 -111.69415 9.75832 -5.36289 29.07303 -12.39956 -1.65232 -31.17029 -9.92108 -2.60409 -3.657 21.33322 3.65028 8.47884 -23.43531 -7.70067 3.45602 3.96694
-0.17011 0.00625 0.2434 205.03653 -21.30614 -2.90591 36.48395 3.74418 -10.67428 -21.25266 10.56708 -2.11991 -3.09906 -44.0231 -18.70915 56.85001 81.75546 -2.64596 -0.35109 -45.65993 17.82733 -17.77728 67.4731 -106.17907 8.94202 -4.14377 30.14014 -12.23729 -2.51962 -32.37372 -9.77779 -2.69253 -3.69443 21.79975 3.74945 8.43464 -23.25692 -7.61454 3.33704 3.90424
-0.16896 0.00719 0.2478 205.95849 -21.69128 -3.12132 37.15854 3.4141 -11.71855 -20.83712 10.21114 -2.11991 -4.46296 -43.12911 -19.04381 56.91143 81.9708 -2.22044 -0.27705 -45.67592 18.07643 -18.2307 67.35365 -101.5046 8.23366 -3.11425 31.1884 -12.1478 -3.27299 -33.63383 -9.66892 -2.76586 -3.72581 22.15136 3.80465 8.56117 -23.05458 -7.51557 3.2194 3.84145
-0.16776 0.00836 0.25229 206.91245 -22.10774 -3.36739 37.88053 3.08176 -12.87314 -20.41153 9.85319 -2.11991 -5.87741 -42.16777 -19.48659 57.10511 82.21109 -1.75573 -0.20105 -45.68923 18.37353 -18.76217 67.22708 -95.50304 7.28679 -1.80692 32.32186 -12.08831 -4.16936 -35.07067 -9.56853 -2.85271 -3.76441 22.53564 3.86618 8.58816 -22.81935 -7.41892 3.10583 3.78052
-0.16691 0.00913 0.25642 207.85465 -22.49903 -3.55987 38.55425 2.74227 -13.82368 -19.97591 9.48798 -2.11992 -7.26981 -41.33312 -19.74367 57.03698 82.41073 -1.34381 -0.1293 -45.71278 18.58783 -19.14783 67.11611 -91.94102 6.79706 -1.00411 33.27202 -11.92669 -4.81316 -36.08449 -9.43164 -2.91728 -3.79009 22.90452 3.93246 8.73347 -22.66921 -7.32477 2.98408 3.71629
-0.16676 0.00868 0.25976 208.71634 -22.80093 -3.60034 39.06204 2.38644 -14.22194 -19.53271 9.11293 -2.11992 -8.53892 -40.83503 -19.53374 56.27448 82.48604 -1.09874 -0.06939 -45.78378 18.54957 -19.09605 67.06502 -95.98695 7.74237 -1.77414 33.7466 -11.51094 -4.66192 -35.98637 -9.20996 -2.91772 -3.77941 23.2078 4.01175 9.35013 -22.75246 -7.22661 2.83158 3.63846
